<svg width="32" height="32" viewBox="0 0 32 32">
  <path fill="#F8F9FA" d="M0 0h32v32H0z"/>
  <path fill="#212529" d="m28.502 23.264-7.345-11.809c-.203-.284-.284-.649-.284-1.014V4.516h1.745V2H9.388v2.516h1.746v5.925c0 .365-.081.69-.284 1.014L3.505 23.264a4.398 4.398 0 0 0-.122 4.464C4.153 29.148 5.615 30 7.238 30h17.489c1.623 0 3.084-.852 3.855-2.272.812-1.42.771-3.084-.08-4.464ZM12.96 12.794c.446-.69.65-1.502.65-2.354l-.001-5.924h4.748v5.924c0 .812.243 1.623.65 2.354l2.759 4.464c-1.258-.04-2.516-.203-3.774-.568a17.165 17.165 0 0 0-7.102-.609l2.07-3.287ZM26.433 26.51a1.88 1.88 0 0 1-1.664.974H7.239c-.69 0-1.34-.366-1.665-.974a1.963 1.963 0 0 1 .04-1.948l3.49-5.519c2.517-.77 5.357-.77 8.238.081 1.705.487 3.45.771 5.113.771.325 0 .65-.04.934-.04l2.962 4.788c.365.528.406 1.258.081 1.867Z"/>
</svg>
